{"asset":{"version":"2.0","generator":"make_woodland_grass.py"},"scene":0,"scenes":[{"nodes":[0]}],"nodes":[{"name":"woodland_sedges_far","mesh":0}],"meshes":[{"primitives":[{"attributes":{"POSITION":0,"NORMAL":1,"TEXCOORD_0":2},"indices":3,"material":0}]}],"materials":[{"name":"Natural meadow grass cutouts","doubleSided":true,"alphaMode":"MASK","alphaCutoff":0.5,"pbrMetallicRoughness":{"baseColorTexture":{"index":0},"metallicFactor":0,"roughnessFactor":0.9}}],"images":[{"uri":"meadow_grass_atlas.png"}],"textures":[{"source":0,"sampler":0}],"samplers":[{"magFilter":9729,"minFilter":9987,"wrapS":33071,"wrapT":33071}],"buffers":[{"uri":"data:application/octet-stream;base64,","byteLength":976}],"bufferViews":[{"buffer":0,"byteOffset":0,"byteLength":312,"target":34962},{"buffer":0,"byteOffset":312,"byteLength":312,"target":34962},{"buffer":0,"byteOffset":624,"byteLength":208,"target":34962},{"buffer":0,"byteOffset":832,"byteLength":144,"target":34963}],"accessors":[{"bufferView":0,"componentType":5126,"count":26,"type":"VEC3","min":[-0.6274820815535049,-0.035,-0.7791544225642849],"max":[0.5529284649454711,1.244242444556859,0.8315002073182618]},{"bufferView":1,"componentType":5126,"count":26,"type":"VEC3","min":[-0.9956979976509253,-0.1956374092082546,-0.9956979976509253],"max":[0.8556719991135903,1,0.6419416768479816]},{"bufferView":2,"componentType":5126,"count":26,"type":"VEC2"},{"bufferView":3,"componentType":5125,"count":36,"type":"SCALAR"}]}
