{
  "accessors": [
    {
      "bufferView": 0,
      "componentType": 5126,
      "count": 3930,
      "max": [
        0.015622340142726898,
        0.09747511893510818,
        0.06312134861946106
      ],
      "min": [
        -0.015402555465698242,
        -0.12152279913425446,
        -0.10298927873373032
      ],
      "type": "VEC3"
    },
    {
      "bufferView": 1,
      "componentType": 5126,
      "count": 3930,
      "type": "VEC3"
    },
    {
      "bufferView": 2,
      "componentType": 5126,
      "count": 3930,
      "type": "VEC2"
    },
    {
      "bufferView": 3,
      "componentType": 5126,
      "count": 1386,
      "max": [
        0.029025426134467125,
        0.01511339657008648,
        0.011917080730199814
      ],
      "min": [
        0.020236486569046974,
        -0.014439334161579609,
        -0.11319321393966675
      ],
      "type": "VEC3"
    },
    {
      "bufferView": 4,
      "componentType": 5126,
      "count": 1386,
      "type": "VEC3"
    },
    {
      "bufferView": 5,
      "componentType": 5126,
      "count": 1386,
      "type": "VEC2"
    },
    {
      "bufferView": 6,
      "componentType": 5126,
      "count": 495,
      "max": [
        0.04970136284828186,
        0.036391764879226685,
        0.044166579842567444
      ],
      "min": [
        -0.01790742389857769,
        0.003543153638020158,
        -0.05240169167518616
      ],
      "type": "VEC3"
    },
    {
      "bufferView": 7,
      "componentType": 5126,
      "count": 495,
      "type": "VEC3"
    },
    {
      "bufferView": 8,
      "componentType": 5126,
      "count": 495,
      "type": "VEC2"
    },
    {
      "bufferView": 9,
      "componentType": 5126,
      "count": 423,
      "max": [
        0.007338754832744598,
        -0.00014170633221510798,
        0.026657436043024063
      ],
      "min": [
        -0.007360719610005617,
        -0.03156209737062454,
        -0.003334765788167715
      ],
      "type": "VEC3"
    },
    {
      "bufferView": 10,
      "componentType": 5126,
      "count": 423,
      "type": "VEC3"
    },
    {
      "bufferView": 11,
      "componentType": 5126,
      "count": 423,
      "type": "VEC2"
    },
    {
      "bufferView": 12,
      "componentType": 5126,
      "count": 43500,
      "max": [
        0.02797078713774681,
        0.1513233482837677,
        0.3106224536895752
      ],
      "min": [
        -0.027992667630314827,
        -0.07266240566968918,
        -0.7199444770812988
      ],
      "type": "VEC3"
    },
    {
      "bufferView": 13,
      "componentType": 5126,
      "count": 43500,
      "type": "VEC3"
    },
    {
      "bufferView": 14,
      "componentType": 5126,
      "count": 43500,
      "type": "VEC2"
    }
  ],
  "asset": {
    "version": "2.0"
  },
  "bufferViews": [
    {
      "buffer": 0,
      "byteLength": 47160,
      "byteOffset": 0,
      "target": 34962
    },
    {
      "buffer": 0,
      "byteLength": 47160,
      "byteOffset": 47160,
      "target": 34962
    },
    {
      "buffer": 0,
      "byteLength": 31440,
      "byteOffset": 94320,
      "target": 34962
    },
    {
      "buffer": 1,
      "byteLength": 16632,
      "byteOffset": 0,
      "target": 34962
    },
    {
      "buffer": 1,
      "byteLength": 16632,
      "byteOffset": 16632,
      "target": 34962
    },
    {
      "buffer": 1,
      "byteLength": 11088,
      "byteOffset": 33264,
      "target": 34962
    },
    {
      "buffer": 2,
      "byteLength": 5940,
      "byteOffset": 0,
      "target": 34962
    },
    {
      "buffer": 2,
      "byteLength": 5940,
      "byteOffset": 5940,
      "target": 34962
    },
    {
      "buffer": 2,
      "byteLength": 3960,
      "byteOffset": 11880,
      "target": 34962
    },
    {
      "buffer": 3,
      "byteLength": 5076,
      "byteOffset": 0,
      "target": 34962
    },
    {
      "buffer": 3,
      "byteLength": 5076,
      "byteOffset": 5076,
      "target": 34962
    },
    {
      "buffer": 3,
      "byteLength": 3384,
      "byteOffset": 10152,
      "target": 34962
    },
    {
      "buffer": 4,
      "byteLength": 522000,
      "byteOffset": 0,
      "target": 34962
    },
    {
      "buffer": 4,
      "byteLength": 522000,
      "byteOffset": 522000,
      "target": 34962
    },
    {
      "buffer": 4,
      "byteLength": 348000,
      "byteOffset": 1044000,
      "target": 34962
    }
  ],
  "buffers": [
    {
      "byteLength": 125760,
      "uri": "MAGAZINE.bin"
    },
    {
      "byteLength": 44352,
      "uri": "SELECTOR.bin"
    },
    {
      "byteLength": 15840,
      "uri": "SLIDE.bin"
    },
    {
      "byteLength": 13536,
      "uri": "TRIGGER.bin"
    },
    {
      "byteLength": 1392000,
      "uri": "body.bin"
    }
  ],
  "images": [
    {
      "uri": "T_AK47_C.png"
    },
    {
      "uri": "normal_gl.png"
    },
    {
      "uri": "orm.png"
    }
  ],
  "materials": [
    {
      "name": "AK47",
      "normalTexture": {
        "index": 1
      },
      "occlusionTexture": {
        "index": 2
      },
      "pbrMetallicRoughness": {
        "baseColorTexture": {
          "index": 0
        },
        "metallicFactor": 1,
        "metallicRoughnessTexture": {
          "index": 2
        },
        "roughnessFactor": 1
      }
    }
  ],
  "meshes": [
    {
      "primitives": [
        {
          "attributes": {
            "NORMAL": 1,
            "POSITION": 0,
            "TEXCOORD_0": 2
          },
          "material": 0
        }
      ]
    },
    {
      "primitives": [
        {
          "attributes": {
            "NORMAL": 4,
            "POSITION": 3,
            "TEXCOORD_0": 5
          },
          "material": 0
        }
      ]
    },
    {
      "primitives": [
        {
          "attributes": {
            "NORMAL": 7,
            "POSITION": 6,
            "TEXCOORD_0": 8
          },
          "material": 0
        }
      ]
    },
    {
      "primitives": [
        {
          "attributes": {
            "NORMAL": 10,
            "POSITION": 9,
            "TEXCOORD_0": 11
          },
          "material": 0
        }
      ]
    },
    {
      "primitives": [
        {
          "attributes": {
            "NORMAL": 13,
            "POSITION": 12,
            "TEXCOORD_0": 14
          },
          "material": 0
        }
      ]
    }
  ],
  "nodes": [
    {
      "mesh": 0,
      "name": "MAGAZINE",
      "translation": [
        8.762430251378586e-09,
        -0.014156119377116408,
        -0.18612228564582747
      ]
    },
    {
      "mesh": 1,
      "name": "SELECTOR",
      "translation": [
        7.190162887983688e-09,
        0.08224588488695984,
        -0.03689957187728715
      ]
    },
    {
      "mesh": 2,
      "name": "SLIDE",
      "translation": [
        1.8297708133864613e-08,
        0.09491475603096423,
        -0.17872494402910924
      ]
    },
    {
      "mesh": 3,
      "name": "TRIGGER",
      "translation": [
        4.962495010995393e-09,
        0.05676434283676801,
        -0.0744032394792373
      ]
    },
    {
      "mesh": 4,
      "name": "body",
      "translation": [
        -0.0,
        0.0,
        -0.0
      ]
    }
  ],
  "scene": 0,
  "scenes": [
    {
      "nodes": [
        0,
        1,
        2,
        3,
        4
      ]
    }
  ],
  "textures": [
    {
      "source": 0
    },
    {
      "source": 1
    },
    {
      "source": 2
    }
  ]
}