{
  "asset": {
    "version": "2.0"
  },
  "scene": 0,
  "scenes": [
    {
      "nodes": [
        0
      ]
    }
  ],
  "nodes": [
    {
      "name": "hand_right",
      "mesh": 0
    }
  ],
  "meshes": [
    {
      "primitives": [
        {
          "attributes": {
            "POSITION": 0,
            "NORMAL": 1,
            "TEXCOORD_0": 2
          },
          "material": 0
        }
      ]
    }
  ],
  "buffers": [
    {
      "uri": "hand_right.bin",
      "byteLength": 391296
    }
  ],
  "bufferViews": [
    {
      "buffer": 0,
      "byteOffset": 0,
      "byteLength": 146736,
      "target": 34962
    },
    {
      "buffer": 0,
      "byteOffset": 146736,
      "byteLength": 146736,
      "target": 34962
    },
    {
      "buffer": 0,
      "byteOffset": 293472,
      "byteLength": 97824,
      "target": 34962
    }
  ],
  "accessors": [
    {
      "bufferView": 0,
      "componentType": 5126,
      "count": 12228,
      "type": "VEC3",
      "min": [
        -0.1241413950920105,
        -0.22362858057022095,
        -0.09371039271354675
      ],
      "max": [
        0.2400730848312378,
        0.12126286327838898,
        0.24608978629112244
      ]
    },
    {
      "bufferView": 1,
      "componentType": 5126,
      "count": 12228,
      "type": "VEC3"
    },
    {
      "bufferView": 2,
      "componentType": 5126,
      "count": 12228,
      "type": "VEC2"
    }
  ],
  "materials": [
    {
      "name": "Photographic skin",
      "pbrMetallicRoughness": {
        "baseColorTexture": {
          "index": 0
        },
        "metallicFactor": 0,
        "roughnessFactor": 0.57
      }
    }
  ],
  "images": [
    {
      "uri": "hands_albedo.png"
    }
  ],
  "textures": [
    {
      "source": 0
    }
  ]
}