{"asset":{"version":"2.0","generator":"glGen original woodland landmarks"},"buffers":[{"byteLength":3040,"uri":"data:application/octet-stream;base64,"}],"bufferViews":[{"buffer":0,"byteOffset":0,"byteLength":960,"target":34962},{"buffer":0,"byteOffset":960,"byteLength":960,"target":34962},{"buffer":0,"byteOffset":1920,"byteLength":640,"target":34962},{"buffer":0,"byteOffset":2560,"byteLength":480,"target":34963}],"accessors":[{"bufferView":0,"componentType":5126,"count":80,"type":"VEC3","min":[-1.2086008958740393,0.035,-0.5947201761226503],"max":[1.40728616739405,0.705,0.5546098546144319]},{"bufferView":1,"componentType":5126,"count":80,"type":"VEC3","min":[-0.09053574604251853,-1.0,-0.9970544855015815],"max":[0.09053574604251854,1.0,0.9970544855015815]},{"bufferView":2,"componentType":5126,"count":80,"type":"VEC2"},{"bufferView":3,"componentType":5125,"count":120,"type":"SCALAR"}],"materials":[{"name":"old timber","doubleSided":true,"pbrMetallicRoughness":{"baseColorFactor":[0.12,0.087,0.055,1],"roughnessFactor":0.95,"metallicFactor":0}}],"meshes":[{"primitives":[{"attributes":{"POSITION":0,"NORMAL":1,"TEXCOORD_0":2},"indices":3,"material":0}]}],"nodes":[{"mesh":0}],"scenes":[{"nodes":[0]}],"scene":0}
