{"asset":{"version":"2.0","generator":"glGen original woodland landmarks"},"buffers":[{"byteLength":9120,"uri":"data:application/octet-stream;base64,"}],"bufferViews":[{"buffer":0,"byteOffset":0,"byteLength":1440,"target":34962},{"buffer":0,"byteOffset":1440,"byteLength":1440,"target":34962},{"buffer":0,"byteOffset":2880,"byteLength":960,"target":34962},{"buffer":0,"byteOffset":3840,"byteLength":720,"target":34963},{"buffer":0,"byteOffset":4560,"byteLength":1440,"target":34962},{"buffer":0,"byteOffset":6000,"byteLength":1440,"target":34962},{"buffer":0,"byteOffset":7440,"byteLength":960,"target":34962},{"buffer":0,"byteOffset":8400,"byteLength":720,"target":34963}],"accessors":[{"bufferView":0,"componentType":5126,"count":120,"type":"VEC3","min":[-2.912584491164775,0.020036691170008614,-0.8125872947983472],"max":[2.708389660776517,0.7399633088299914,1.0602533950697446]},{"bufferView":1,"componentType":5126,"count":120,"type":"VEC3","min":[-0.7781938919225211,-0.9891520562989173,-0.9646750922076871],"max":[0.7644953612976342,0.9964216600396145,0.9660037758186454]},{"bufferView":2,"componentType":5126,"count":120,"type":"VEC2"},{"bufferView":3,"componentType":5125,"count":180,"type":"SCALAR"},{"bufferView":4,"componentType":5126,"count":120,"type":"VEC3","min":[-2.912584491164775,0.020036691170008614,-0.8125872947983472],"max":[2.708389660776517,0.7399633088299914,1.0602533950697446]},{"bufferView":5,"componentType":5126,"count":120,"type":"VEC3","min":[-0.9993819510004047,-0.42628679325957286,-0.8141455695679023],"max":[0.9993819510004047,0.426286793259569,0.8141455695679017]},{"bufferView":6,"componentType":5126,"count":120,"type":"VEC2"},{"bufferView":7,"componentType":5125,"count":180,"type":"SCALAR"}],"materials":[{"name":"fallen birch bark","doubleSided":true,"pbrMetallicRoughness":{"baseColorFactor":[1,1,1,1],"roughnessFactor":0.86,"metallicFactor":0,"baseColorTexture":{"index":0}},"normalTexture":{"index":1,"scale":0.75}},{"name":"cut wood","doubleSided":true,"pbrMetallicRoughness":{"baseColorFactor":[0.29,0.18,0.085,1],"roughnessFactor":0.92,"metallicFactor":0}}],"meshes":[{"primitives":[{"attributes":{"POSITION":0,"NORMAL":1,"TEXCOORD_0":2},"indices":3,"material":0},{"attributes":{"POSITION":4,"NORMAL":5,"TEXCOORD_0":6},"indices":7,"material":1}]}],"nodes":[{"mesh":0}],"scenes":[{"nodes":[0]}],"scene":0,"images":[{"uri":"../trees/birch/birch_bark_v2.png"},{"uri":"../trees/birch/birch_bark_normal_v2.png"}],"textures":[{"source":0},{"source":1}]}
