{"asset":{"version":"2.0","generator":"glGen original woodland landmarks"},"buffers":[{"byteLength":20064,"uri":"data:application/octet-stream;base64,"}],"bufferViews":[{"buffer":0,"byteOffset":0,"byteLength":4500,"target":34962},{"buffer":0,"byteOffset":4500,"byteLength":4500,"target":34962},{"buffer":0,"byteOffset":9000,"byteLength":3000,"target":34962},{"buffer":0,"byteOffset":12000,"byteLength":8064,"target":34963}],"accessors":[{"bufferView":0,"componentType":5126,"count":375,"type":"VEC3","min":[-1.6618357116746085,-0.1373456396327096,-1.4179165945570413],"max":[1.8002577272261635,1.8363645658691763,1.2834153593899431]},{"bufferView":1,"componentType":5126,"count":375,"type":"VEC3","min":[-0.9925876277487581,-0.9995980965377486,-0.9921102471513854],"max":[0.9897811588032115,0.9975154324375579,0.9972392157601692]},{"bufferView":2,"componentType":5126,"count":375,"type":"VEC2"},{"bufferView":3,"componentType":5125,"count":2016,"type":"SCALAR"}],"materials":[{"name":"weathered granite","doubleSided":true,"pbrMetallicRoughness":{"baseColorFactor":[1,1,1,1],"roughnessFactor":0.92,"metallicFactor":0,"baseColorTexture":{"index":0}},"normalTexture":{"index":1,"scale":0.7}}],"meshes":[{"primitives":[{"attributes":{"POSITION":0,"NORMAL":1,"TEXCOORD_0":2},"indices":3,"material":0}]}],"nodes":[{"mesh":0}],"scenes":[{"nodes":[0]}],"scene":0,"images":[{"uri":"../materials/m1/textures/stone-47_diffuse.jpg"},{"uri":"../materials/m1/textures/stone-47_normals.jpg"}],"textures":[{"source":0},{"source":1}]}
