{"asset":{"version":"2.0","generator":"glGen original woodland landmarks"},"buffers":[{"byteLength":77824,"uri":"data:application/octet-stream;base64,"}],"bufferViews":[{"buffer":0,"byteOffset":0,"byteLength":24576,"target":34962},{"buffer":0,"byteOffset":24576,"byteLength":24576,"target":34962},{"buffer":0,"byteOffset":49152,"byteLength":16384,"target":34962},{"buffer":0,"byteOffset":65536,"byteLength":12288,"target":34963}],"accessors":[{"bufferView":0,"componentType":5126,"count":2048,"type":"VEC3","min":[-0.001900411354309168,12.677500084113602,-4.4225],"max":[160.0019004113543,19.22241959938724,4.4225]},{"bufferView":1,"componentType":5126,"count":2048,"type":"VEC3","min":[-0.08446272685818525,-0.999996261617643,-1.0],"max":[0.08446272685818525,0.999996261617643,1.0]},{"bufferView":2,"componentType":5126,"count":2048,"type":"VEC2"},{"bufferView":3,"componentType":5125,"count":3072,"type":"SCALAR"}],"materials":[{"name":"power cables","doubleSided":true,"pbrMetallicRoughness":{"baseColorFactor":[0.035,0.039,0.034,1],"roughnessFactor":0.86,"metallicFactor":0}}],"meshes":[{"primitives":[{"attributes":{"POSITION":0,"NORMAL":1,"TEXCOORD_0":2},"indices":3,"material":0}]}],"nodes":[{"mesh":0}],"scenes":[{"nodes":[0]}],"scene":0}
