{"asset":{"version":"2.0","generator":"glGen original woodland landmarks"},"buffers":[{"byteLength":54720,"uri":"data:application/octet-stream;base64,"}],"bufferViews":[{"buffer":0,"byteOffset":0,"byteLength":16512,"target":34962},{"buffer":0,"byteOffset":16512,"byteLength":16512,"target":34962},{"buffer":0,"byteOffset":33024,"byteLength":11008,"target":34962},{"buffer":0,"byteOffset":44032,"byteLength":8256,"target":34963},{"buffer":0,"byteOffset":52288,"byteLength":768,"target":34962},{"buffer":0,"byteOffset":53056,"byteLength":768,"target":34962},{"buffer":0,"byteOffset":53824,"byteLength":512,"target":34962},{"buffer":0,"byteOffset":54336,"byteLength":384,"target":34963}],"accessors":[{"bufferView":0,"componentType":5126,"count":1376,"type":"VEC3","min":[-4.413155870289605,-0.05,-2.8706345138334157],"max":[4.413155870289605,21.247434164902526,2.8706345138334157]},{"bufferView":1,"componentType":5126,"count":1376,"type":"VEC3","min":[-1.0,-1.0,-1.0],"max":[1.0,1.0,1.0]},{"bufferView":2,"componentType":5126,"count":1376,"type":"VEC2"},{"bufferView":3,"componentType":5125,"count":2064,"type":"SCALAR"},{"bufferView":4,"componentType":5126,"count":64,"type":"VEC3","min":[-4.48,16.2,-0.08],"max":[4.48,20.0,0.08]},{"bufferView":5,"componentType":5126,"count":64,"type":"VEC3","min":[-1.0,0.0,-1.0],"max":[1.0,0.0,1.0]},{"bufferView":6,"componentType":5126,"count":64,"type":"VEC2"},{"bufferView":7,"componentType":5125,"count":96,"type":"SCALAR"}],"materials":[{"name":"weathered galvanized steel","doubleSided":true,"pbrMetallicRoughness":{"baseColorFactor":[0.23,0.25,0.23,1],"roughnessFactor":0.72,"metallicFactor":0.65}},{"name":"dark ceramic insulators","doubleSided":true,"pbrMetallicRoughness":{"baseColorFactor":[0.065,0.07,0.055,1],"roughnessFactor":0.34,"metallicFactor":0}}],"meshes":[{"primitives":[{"attributes":{"POSITION":0,"NORMAL":1,"TEXCOORD_0":2},"indices":3,"material":0},{"attributes":{"POSITION":4,"NORMAL":5,"TEXCOORD_0":6},"indices":7,"material":1}]}],"nodes":[{"mesh":0}],"scenes":[{"nodes":[0]}],"scene":0}
