{"asset":{"version":"2.0","generator":"make_woodland_birch.py"},"scene":0,"scenes":[{"nodes":[0]}],"nodes":[{"name":"WoodlandBirch","mesh":0}],"meshes":[{"primitives":[{"attributes":{"POSITION":0,"NORMAL":1,"TEXCOORD_0":2},"indices":3,"material":0},{"attributes":{"POSITION":4,"NORMAL":5,"TEXCOORD_0":6},"indices":7,"material":1},{"attributes":{"POSITION":8,"NORMAL":9,"TEXCOORD_0":10},"indices":11,"material":2}]}],"materials":[{"name":"Papery birch bark","doubleSided":true,"normalTexture":{"index":1},"pbrMetallicRoughness":{"baseColorTexture":{"index":0},"metallicFactor":0,"roughnessFactor":0.85}},{"name":"Fine brown branches","doubleSided":true,"pbrMetallicRoughness":{"baseColorFactor":[0.16,0.13,0.085,1],"metallicFactor":0,"roughnessFactor":0.88}},{"name":"Birch leaf sprays","doubleSided":true,"alphaMode":"MASK","alphaCutoff":0.45,"pbrMetallicRoughness":{"baseColorTexture":{"index":2},"metallicFactor":0,"roughnessFactor":0.52}}],"images":[{"uri":"birch_bark_v2.png"},{"uri":"birch_bark_normal_v2.png"},{"uri":"birch_spray_v2.png"}],"textures":[{"source":0},{"source":1},{"source":2}],"buffers":[{"uri":"data:application/octet-stream;base64,","byteLength":43632}],"bufferViews":[{"buffer":0,"byteOffset":0,"byteLength":4968,"target":34962},{"buffer":0,"byteOffset":4968,"byteLength":4968,"target":34962},{"buffer":0,"byteOffset":9936,"byteLength":3312,"target":34962},{"buffer":0,"byteOffset":13248,"byteLength":1656,"target":34963},{"buffer":0,"byteOffset":14904,"byteLength":4104,"target":34962},{"buffer":0,"byteOffset":19008,"byteLength":4104,"target":34962},{"buffer":0,"byteOffset":23112,"byteLength":2736,"target":34962},{"buffer":0,"byteOffset":25848,"byteLength":1368,"target":34963},{"buffer":0,"byteOffset":27216,"byteLength":5472,"target":34962},{"buffer":0,"byteOffset":32688,"byteLength":5472,"target":34962},{"buffer":0,"byteOffset":38160,"byteLength":3648,"target":34962},{"buffer":0,"byteOffset":41808,"byteLength":1824,"target":34963}],"accessors":[{"bufferView":0,"componentType":5126,"count":414,"type":"VEC3","min":[-0.6596453483482568,-0.009242133281130953,-0.177861284969731],"max":[0.8113284314974644,8.005652549039594,0.5113399748334589]},{"bufferView":1,"componentType":5126,"count":414,"type":"VEC3","min":[-0.9994225006437363,-0.24253229255047454,-0.9999957384207657],"max":[0.9994225006437363,0.21991290348966114,0.9999957384207657]},{"bufferView":2,"componentType":5126,"count":414,"type":"VEC2"},{"bufferView":3,"componentType":5125,"count":414,"type":"SCALAR"},{"bufferView":4,"componentType":5126,"count":342,"type":"VEC3","min":[-1.4857695608353814,2.1092055629254873,-2.085149511696826],"max":[2.361661365426381,7.683088484695449,2.2330499614955994]},{"bufferView":5,"componentType":5126,"count":342,"type":"VEC3","min":[-0.8829537366281921,-0.9712404028587469,-0.8651367036235648],"max":[0.9830678450898722,0.9624895081074935,0.8651367036235645]},{"bufferView":6,"componentType":5126,"count":342,"type":"VEC2"},{"bufferView":7,"componentType":5125,"count":342,"type":"SCALAR"},{"bufferView":8,"componentType":5126,"count":456,"type":"VEC3","min":[-2.0441970846509117,2.214075253593159,-2.4475150446110945],"max":[3.0809249757987165,8.120307742888107,2.341930876002469]},{"bufferView":9,"componentType":5126,"count":456,"type":"VEC3","min":[-0.6308026139277024,0.6972838843561786,-0.6083311020533293],"max":[0.6603811789531935,0.9999976722944545,0.6811421470818748]},{"bufferView":10,"componentType":5126,"count":456,"type":"VEC2"},{"bufferView":11,"componentType":5125,"count":456,"type":"SCALAR"}]}
