{"asset":{"version":"2.0","generator":"make_woodland_birch.py"},"scene":0,"scenes":[{"nodes":[0]}],"nodes":[{"name":"WoodlandBirch","mesh":0}],"meshes":[{"primitives":[{"attributes":{"POSITION":0,"NORMAL":1,"TEXCOORD_0":2},"indices":3,"material":0},{"attributes":{"POSITION":4,"NORMAL":5,"TEXCOORD_0":6},"indices":7,"material":2}]}],"materials":[{"name":"Papery birch bark","doubleSided":true,"normalTexture":{"index":1},"pbrMetallicRoughness":{"baseColorTexture":{"index":0},"metallicFactor":0,"roughnessFactor":0.85}},{"name":"Fine brown branches","doubleSided":true,"pbrMetallicRoughness":{"baseColorFactor":[0.16,0.13,0.085,1],"metallicFactor":0,"roughnessFactor":0.88}},{"name":"Birch leaf sprays","doubleSided":true,"alphaMode":"MASK","alphaCutoff":0.45,"pbrMetallicRoughness":{"baseColorTexture":{"index":2},"metallicFactor":0,"roughnessFactor":0.52}}],"images":[{"uri":"birch_bark_v2.png"},{"uri":"birch_bark_normal_v2.png"},{"uri":"birch_spray_v2.png"}],"textures":[{"source":0},{"source":1},{"source":2}],"buffers":[{"uri":"data:application/octet-stream;base64,","byteLength":9936}],"bufferViews":[{"buffer":0,"byteOffset":0,"byteLength":1440,"target":34962},{"buffer":0,"byteOffset":1440,"byteLength":1440,"target":34962},{"buffer":0,"byteOffset":2880,"byteLength":960,"target":34962},{"buffer":0,"byteOffset":3840,"byteLength":480,"target":34963},{"buffer":0,"byteOffset":4320,"byteLength":1872,"target":34962},{"buffer":0,"byteOffset":6192,"byteLength":1872,"target":34962},{"buffer":0,"byteOffset":8064,"byteLength":1248,"target":34962},{"buffer":0,"byteOffset":9312,"byteLength":624,"target":34963}],"accessors":[{"bufferView":0,"componentType":5126,"count":120,"type":"VEC3","min":[-0.6617062341230021,-0.0076469336747180825,-0.17790554036395392],"max":[0.8113767384117244,8.00534188750017,0.5119235551611947]},{"bufferView":1,"componentType":5126,"count":120,"type":"VEC3","min":[-0.9990767800781398,-0.21991290348966114,-0.9999599308877055],"max":[0.9990767800781398,0.21991290348966114,0.9999599308877055]},{"bufferView":2,"componentType":5126,"count":120,"type":"VEC2"},{"bufferView":3,"componentType":5125,"count":120,"type":"SCALAR"},{"bufferView":4,"componentType":5126,"count":156,"type":"VEC3","min":[-2.3573175430371447,2.463765367071788,-3.18407096570691],"max":[3.1490314065688634,8.192876778903765,2.8872976477389924]},{"bufferView":5,"componentType":5126,"count":156,"type":"VEC3","min":[-0.4236576104272739,0.6972838843561786,-0.7063699449660463],"max":[0.6603811789531935,0.9999809771623303,0.6804968419276145]},{"bufferView":6,"componentType":5126,"count":156,"type":"VEC2"},{"bufferView":7,"componentType":5125,"count":156,"type":"SCALAR"}]}
