{"asset":{"version":"2.0","generator":"make_woodland_birch.py"},"scene":0,"scenes":[{"nodes":[0]}],"nodes":[{"name":"WoodlandBirch","mesh":0}],"meshes":[{"primitives":[{"attributes":{"POSITION":0,"NORMAL":1,"TEXCOORD_0":2},"indices":3,"material":0},{"attributes":{"POSITION":4,"NORMAL":5,"TEXCOORD_0":6},"indices":7,"material":1},{"attributes":{"POSITION":8,"NORMAL":9,"TEXCOORD_0":10},"indices":11,"material":2}]}],"materials":[{"name":"Papery birch bark","doubleSided":true,"normalTexture":{"index":1},"pbrMetallicRoughness":{"baseColorTexture":{"index":0},"metallicFactor":0,"roughnessFactor":0.85}},{"name":"Fine brown branches","doubleSided":true,"pbrMetallicRoughness":{"baseColorFactor":[0.16,0.13,0.085,1],"metallicFactor":0,"roughnessFactor":0.88}},{"name":"Birch leaf sprays","doubleSided":true,"alphaMode":"MASK","alphaCutoff":0.45,"pbrMetallicRoughness":{"baseColorTexture":{"index":2},"metallicFactor":0,"roughnessFactor":0.52}}],"images":[{"uri":"birch_bark_v2.png"},{"uri":"birch_bark_normal_v2.png"},{"uri":"birch_spray_v2.png"}],"textures":[{"source":0},{"source":1},{"source":2}],"buffers":[{"uri":"data:application/octet-stream;base64,","byteLength":330264}],"bufferViews":[{"buffer":0,"byteOffset":0,"byteLength":14328,"target":34962},{"buffer":0,"byteOffset":14328,"byteLength":14328,"target":34962},{"buffer":0,"byteOffset":28656,"byteLength":9552,"target":34962},{"buffer":0,"byteOffset":38208,"byteLength":4776,"target":34963},{"buffer":0,"byteOffset":42984,"byteLength":46512,"target":34962},{"buffer":0,"byteOffset":89496,"byteLength":46512,"target":34962},{"buffer":0,"byteOffset":136008,"byteLength":31008,"target":34962},{"buffer":0,"byteOffset":167016,"byteLength":15504,"target":34963},{"buffer":0,"byteOffset":182520,"byteLength":49248,"target":34962},{"buffer":0,"byteOffset":231768,"byteLength":49248,"target":34962},{"buffer":0,"byteOffset":281016,"byteLength":32832,"target":34962},{"buffer":0,"byteOffset":313848,"byteLength":16416,"target":34963}],"accessors":[{"bufferView":0,"componentType":5126,"count":1194,"type":"VEC3","min":[-0.6606759885464083,-0.00899109690678379,-0.17784798514059358],"max":[0.81130330799964,8.005807394165942,0.5116246067390884]},{"bufferView":1,"componentType":5126,"count":1194,"type":"VEC3","min":[-0.9995651587948456,-0.2458343120353071,-0.9999966866823569],"max":[0.9995651587948456,0.22306522012238025,0.9999966866823569]},{"bufferView":2,"componentType":5126,"count":1194,"type":"VEC2"},{"bufferView":3,"componentType":5125,"count":1194,"type":"SCALAR"},{"bufferView":4,"componentType":5126,"count":3876,"type":"VEC3","min":[-1.9538311030047841,2.1092055629254873,-2.4804625278676222],"max":[2.74711347950238,8.121150475318194,2.6004711819761237]},{"bufferView":5,"componentType":5126,"count":3876,"type":"VEC3","min":[-0.9999398115889861,-0.9712404028587469,-0.9999822360873368],"max":[0.9999398115889861,0.9639204939946185,0.9999822360873368]},{"bufferView":6,"componentType":5126,"count":3876,"type":"VEC2"},{"bufferView":7,"componentType":5125,"count":3876,"type":"SCALAR"},{"bufferView":8,"componentType":5126,"count":4104,"type":"VEC3","min":[-2.5614810658084894,2.3453438010313374,-3.1113440519136417],"max":[3.7943413700339357,8.379569102296818,2.937290688171439]},{"bufferView":9,"componentType":5126,"count":4104,"type":"VEC3","min":[-0.6710094851793319,0.6972838843561786,-0.7080880730937499],"max":[0.6865185329670224,0.9999976722944545,0.705470044143499]},{"bufferView":10,"componentType":5126,"count":4104,"type":"VEC2"},{"bufferView":11,"componentType":5125,"count":4104,"type":"SCALAR"}]}
