{
  "asset": {
    "version": "2.0",
    "generator": "glGen woodland scan conditioner"
  },
  "scene": 0,
  "scenes": [
    {
      "nodes": [
        0
      ]
    }
  ],
  "nodes": [
    {
      "mesh": 0
    }
  ],
  "buffers": [
    {
      "uri": "meadow.bin",
      "byteLength": 29272
    }
  ],
  "bufferViews": [
    {
      "buffer": 0,
      "byteOffset": 0,
      "byteLength": 7764
    },
    {
      "buffer": 0,
      "byteOffset": 7764,
      "byteLength": 7764
    },
    {
      "buffer": 0,
      "byteOffset": 15528,
      "byteLength": 5176
    },
    {
      "buffer": 0,
      "byteOffset": 20704,
      "byteLength": 8568
    }
  ],
  "accessors": [
    {
      "bufferView": 0,
      "componentType": 5126,
      "count": 647,
      "type": "VEC3",
      "min": [
        -0.27784955501556396,
        -0.007379665970802307,
        -0.2828674912452698
      ],
      "max": [
        0.31775975227355957,
        0.4006393253803253,
        0.3159445822238922
      ]
    },
    {
      "bufferView": 1,
      "componentType": 5126,
      "count": 647,
      "type": "VEC3"
    },
    {
      "bufferView": 2,
      "componentType": 5126,
      "count": 647,
      "type": "VEC2"
    },
    {
      "bufferView": 3,
      "componentType": 5125,
      "count": 2142,
      "type": "SCALAR"
    }
  ],
  "materials": [
    {
      "alphaMode": "MASK",
      "doubleSided": true,
      "name": "grass_medium_02",
      "normalTexture": {
        "index": 0
      },
      "pbrMetallicRoughness": {
        "baseColorTexture": {
          "index": 1
        },
        "metallicFactor": 0,
        "metallicRoughnessTexture": {
          "index": 2
        },
        "roughnessFactor": 0.9
      },
      "alphaCutoff": 0.45
    }
  ],
  "images": [
    {
      "mimeType": "image/jpeg",
      "name": "grass_medium_02_nor_gl",
      "uri": "source/textures/grass_medium_02_nor_gl_2k.jpg"
    },
    {
      "mimeType": "image/jpeg",
      "name": "grass_medium_02_diff-grass_medium_02_alpha",
      "uri": "grass_medium_02_woodland_grass_scan_rgba.png"
    },
    {
      "mimeType": "image/jpeg",
      "name": "grass_medium_02_rough",
      "uri": "source/textures/grass_medium_02_arm_2k.jpg"
    }
  ],
  "textures": [
    {
      "sampler": 0,
      "source": 0
    },
    {
      "sampler": 0,
      "source": 1
    },
    {
      "sampler": 0,
      "source": 2
    }
  ],
  "samplers": [
    {
      "magFilter": 9729,
      "minFilter": 9987
    }
  ],
  "meshes": [
    {
      "primitives": [
        {
          "attributes": {
            "POSITION": 0,
            "NORMAL": 1,
            "TEXCOORD_0": 2
          },
          "indices": 3,
          "material": 0
        }
      ]
    }
  ]
}
