{
  "asset": {
    "version": "2.0",
    "generator": "glGen woodland scan conditioner"
  },
  "scene": 0,
  "scenes": [
    {
      "nodes": [
        0
      ]
    }
  ],
  "nodes": [
    {
      "mesh": 0
    }
  ],
  "buffers": [
    {
      "uri": "tall_mid.bin",
      "byteLength": 3376
    }
  ],
  "bufferViews": [
    {
      "buffer": 0,
      "byteOffset": 0,
      "byteLength": 960
    },
    {
      "buffer": 0,
      "byteOffset": 960,
      "byteLength": 960
    },
    {
      "buffer": 0,
      "byteOffset": 1920,
      "byteLength": 640
    },
    {
      "buffer": 0,
      "byteOffset": 2560,
      "byteLength": 816
    }
  ],
  "accessors": [
    {
      "bufferView": 0,
      "componentType": 5126,
      "count": 80,
      "type": "VEC3",
      "min": [
        -0.13529282808303833,
        -0.009482566267251968,
        -0.12665504217147827
      ],
      "max": [
        0.13833306729793549,
        0.5388463139533997,
        0.14284847676753998
      ]
    },
    {
      "bufferView": 1,
      "componentType": 5126,
      "count": 80,
      "type": "VEC3"
    },
    {
      "bufferView": 2,
      "componentType": 5126,
      "count": 80,
      "type": "VEC2"
    },
    {
      "bufferView": 3,
      "componentType": 5125,
      "count": 204,
      "type": "SCALAR"
    }
  ],
  "materials": [
    {
      "alphaMode": "MASK",
      "doubleSided": true,
      "name": "grass_medium_01",
      "normalTexture": {
        "index": 0
      },
      "pbrMetallicRoughness": {
        "baseColorTexture": {
          "index": 1
        },
        "metallicFactor": 0,
        "metallicRoughnessTexture": {
          "index": 2
        },
        "roughnessFactor": 0.9
      },
      "alphaCutoff": 0.45
    }
  ],
  "images": [
    {
      "mimeType": "image/jpeg",
      "name": "grass_medium_01_nor_gl",
      "uri": "source/textures/grass_medium_01_nor_gl_2k.jpg"
    },
    {
      "mimeType": "image/jpeg",
      "name": "grass_medium_01_diff-grass_medium_01_alpha",
      "uri": "grass_medium_01_woodland_grass_scan_rgba.png"
    },
    {
      "mimeType": "image/jpeg",
      "name": "grass_medium_01_rough",
      "uri": "source/textures/grass_medium_01_arm_2k.jpg"
    }
  ],
  "textures": [
    {
      "sampler": 0,
      "source": 0
    },
    {
      "sampler": 0,
      "source": 1
    },
    {
      "sampler": 0,
      "source": 2
    }
  ],
  "samplers": [
    {
      "magFilter": 9729,
      "minFilter": 9987
    }
  ],
  "meshes": [
    {
      "primitives": [
        {
          "attributes": {
            "POSITION": 0,
            "NORMAL": 1,
            "TEXCOORD_0": 2
          },
          "indices": 3,
          "material": 0
        }
      ]
    }
  ]
}
