{"asset":{"version":"2.0","generator":"glGen deterministic terrain dressing"},"scene":0,"scenes":[{"nodes":[0]}],"nodes":[{"name":"broken_ground_sticks","mesh":0}],"meshes":[{"primitives":[{"attributes":{"POSITION":0,"NORMAL":1,"TEXCOORD_0":2},"indices":3,"material":0},{"attributes":{"POSITION":4,"NORMAL":5,"TEXCOORD_0":6},"indices":7,"material":1}]}],"materials":[{"name":"dark fissured twig bark","doubleSided":true,"pbrMetallicRoughness":{"baseColorFactor":[0.48,0.4,0.32,1],"metallicFactor":0,"roughnessFactor":0.95,"baseColorTexture":{"index":0}}},{"name":"splintered weathered wood","doubleSided":true,"pbrMetallicRoughness":{"baseColorFactor":[0.15,0.1,0.052,1],"metallicFactor":0,"roughnessFactor":0.98}}],"buffers":[{"byteLength":18144,"uri":"data:application/octet-stream;base64,"}],"bufferViews":[{"buffer":0,"byteOffset":0,"byteLength":3024,"target":34962},{"buffer":0,"byteOffset":3024,"byteLength":3024,"target":34962},{"buffer":0,"byteOffset":6048,"byteLength":2016,"target":34962},{"buffer":0,"byteOffset":8064,"byteLength":1008,"target":34963},{"buffer":0,"byteOffset":9072,"byteLength":3024,"target":34962},{"buffer":0,"byteOffset":12096,"byteLength":3024,"target":34962},{"buffer":0,"byteOffset":15120,"byteLength":2016,"target":34962},{"buffer":0,"byteOffset":17136,"byteLength":1008,"target":34963}],"accessors":[{"bufferView":0,"componentType":5126,"count":252,"type":"VEC3","min":[-0.3637399938761492,0.0030022153301113644,-0.10716265461360922],"max":[0.28254073721598605,0.0519016928961383,0.37107181497678293]},{"bufferView":1,"componentType":5126,"count":252,"type":"VEC3","min":[-0.9338787142954145,-0.9998242650849972,-0.9534808118671785],"max":[0.8619078789864403,0.9672309653794342,0.9534808118671785]},{"bufferView":2,"componentType":5126,"count":252,"type":"VEC2"},{"bufferView":3,"componentType":5125,"count":252,"type":"SCALAR"},{"bufferView":4,"componentType":5126,"count":252,"type":"VEC3","min":[-0.36375549249186934,0.0032526848748015737,-0.1058924054328757],"max":[0.2823760585743798,0.051912096183155676,0.37107539797999134]},{"bufferView":5,"componentType":5126,"count":252,"type":"VEC3","min":[-0.9778058059299906,-0.09304339777636882,-0.9304339777636531],"max":[0.9778058059299904,0.09304339777637445,0.9304339777636534]},{"bufferView":6,"componentType":5126,"count":252,"type":"VEC2"},{"bufferView":7,"componentType":5125,"count":252,"type":"SCALAR"}],"images":[{"uri":"../trees/spruce/bark09.png"}],"textures":[{"source":0}]}
