{"asset":{"version":"2.0","generator":"glGen deterministic terrain dressing"},"scene":0,"scenes":[{"nodes":[0]}],"nodes":[{"name":"forest_deadwood","mesh":0}],"meshes":[{"primitives":[{"attributes":{"POSITION":0,"NORMAL":1,"TEXCOORD_0":2},"indices":3,"material":0}]}],"materials":[{"name":"weathered fallen twigs","doubleSided":true,"pbrMetallicRoughness":{"baseColorFactor":[0.13,0.085,0.042,1],"metallicFactor":0,"roughnessFactor":0.96}}],"buffers":[{"byteLength":7992,"uri":"data:application/octet-stream;base64,"}],"bufferViews":[{"buffer":0,"byteOffset":0,"byteLength":2664,"target":34962},{"buffer":0,"byteOffset":2664,"byteLength":2664,"target":34962},{"buffer":0,"byteOffset":5328,"byteLength":1776,"target":34962},{"buffer":0,"byteOffset":7104,"byteLength":888,"target":34963}],"accessors":[{"bufferView":0,"componentType":5126,"count":222,"type":"VEC3","min":[-0.9576258988427052,0.015285747864240085,-1.2195816589242086],"max":[1.040692738793361,0.2328789479390924,0.603075644347399]},{"bufferView":1,"componentType":5126,"count":222,"type":"VEC3","min":[-0.9953018730811247,-0.9918357753074261,-0.9510565162951538],"max":[0.8326709179095043,0.9915947370783922,0.9510565162951539]},{"bufferView":2,"componentType":5126,"count":222,"type":"VEC2"},{"bufferView":3,"componentType":5125,"count":222,"type":"SCALAR"}]}
