{"asset":{"version":"2.0","generator":"glGen deterministic terrain dressing"},"scene":0,"scenes":[{"nodes":[0]}],"nodes":[{"name":"fractured_granite_far","mesh":0}],"meshes":[{"primitives":[{"attributes":{"POSITION":0,"NORMAL":1,"TEXCOORD_0":2},"indices":3,"material":0}]}],"materials":[{"name":"fractured weathered granite","doubleSided":true,"pbrMetallicRoughness":{"baseColorFactor":[1,1,1,1],"metallicFactor":0,"roughnessFactor":0.9,"baseColorTexture":{"index":0}},"normalTexture":{"index":1,"scale":0.65}}],"buffers":[{"byteLength":3456,"uri":"data:application/octet-stream;base64,"}],"bufferViews":[{"buffer":0,"byteOffset":0,"byteLength":1152,"target":34962},{"buffer":0,"byteOffset":1152,"byteLength":1152,"target":34962},{"buffer":0,"byteOffset":2304,"byteLength":768,"target":34962},{"buffer":0,"byteOffset":3072,"byteLength":384,"target":34963}],"accessors":[{"bufferView":0,"componentType":5126,"count":96,"type":"VEC3","min":[-1.0620988219444716,-0.018999999999999906,-1.0672164953077408],"max":[1.1519037235308893,1.4725,1.1050246616007964]},{"bufferView":1,"componentType":5126,"count":96,"type":"VEC3","min":[-0.968031510707818,-0.9974321230382972,-0.8642192770426034],"max":[0.8397906449840001,0.9983025593211953,0.891558827189288]},{"bufferView":2,"componentType":5126,"count":96,"type":"VEC2"},{"bufferView":3,"componentType":5125,"count":96,"type":"SCALAR"}],"images":[{"uri":"../materials/m1/textures/stone-47_diffuse.jpg"},{"uri":"../materials/m1/textures/stone-47_normals.jpg"}],"textures":[{"source":0},{"source":1}]}
