{"asset":{"version":"2.0","generator":"glGen deterministic terrain dressing"},"scene":0,"scenes":[{"nodes":[0]}],"nodes":[{"name":"granite_slab_far","mesh":0}],"meshes":[{"primitives":[{"attributes":{"POSITION":0,"NORMAL":1,"TEXCOORD_0":2},"indices":3,"material":0}]}],"materials":[{"name":"fractured weathered granite","doubleSided":true,"pbrMetallicRoughness":{"baseColorFactor":[1,1,1,1],"metallicFactor":0,"roughnessFactor":0.9,"baseColorTexture":{"index":0}},"normalTexture":{"index":1,"scale":0.65}}],"buffers":[{"byteLength":3456,"uri":"data:application/octet-stream;base64,"}],"bufferViews":[{"buffer":0,"byteOffset":0,"byteLength":1152,"target":34962},{"buffer":0,"byteOffset":1152,"byteLength":1152,"target":34962},{"buffer":0,"byteOffset":2304,"byteLength":768,"target":34962},{"buffer":0,"byteOffset":3072,"byteLength":384,"target":34963}],"accessors":[{"bufferView":0,"componentType":5126,"count":96,"type":"VEC3","min":[-1.3612502429778928,-0.009599999999999942,-0.6781464319644684],"max":[1.2292688214377696,0.744,0.7676993315916638]},{"bufferView":1,"componentType":5126,"count":96,"type":"VEC3","min":[-0.7350939793490577,-0.9993235590426042,-0.9698483077637381],"max":[0.9269476383582574,0.9993529931619475,0.9477184351586696]},{"bufferView":2,"componentType":5126,"count":96,"type":"VEC2"},{"bufferView":3,"componentType":5125,"count":96,"type":"SCALAR"}],"images":[{"uri":"../materials/m1/textures/stone-47_diffuse.jpg"},{"uri":"../materials/m1/textures/stone-47_normals.jpg"}],"textures":[{"source":0},{"source":1}]}
