{"asset":{"version":"2.0","generator":"glGen deterministic terrain dressing"},"scene":0,"scenes":[{"nodes":[0]}],"nodes":[{"name":"granite_slab_mid","mesh":0}],"meshes":[{"primitives":[{"attributes":{"POSITION":0,"NORMAL":1,"TEXCOORD_0":2},"indices":3,"material":0}]}],"materials":[{"name":"fractured weathered granite","doubleSided":true,"pbrMetallicRoughness":{"baseColorFactor":[1,1,1,1],"metallicFactor":0,"roughnessFactor":0.9,"baseColorTexture":{"index":0}},"normalTexture":{"index":1,"scale":0.65}}],"buffers":[{"byteLength":13824,"uri":"data:application/octet-stream;base64,"}],"bufferViews":[{"buffer":0,"byteOffset":0,"byteLength":4608,"target":34962},{"buffer":0,"byteOffset":4608,"byteLength":4608,"target":34962},{"buffer":0,"byteOffset":9216,"byteLength":3072,"target":34962},{"buffer":0,"byteOffset":12288,"byteLength":1536,"target":34963}],"accessors":[{"bufferView":0,"componentType":5126,"count":384,"type":"VEC3","min":[-1.4802090292217085,-0.009599999999999942,-0.7275046021003724],"max":[1.3651659462222894,0.744,0.79070879662668]},{"bufferView":1,"componentType":5126,"count":384,"type":"VEC3","min":[-0.8196735193936345,-1.0,-0.9627446258769199],"max":[0.9278604122733927,1.0,0.989630455908719]},{"bufferView":2,"componentType":5126,"count":384,"type":"VEC2"},{"bufferView":3,"componentType":5125,"count":384,"type":"SCALAR"}],"images":[{"uri":"../materials/m1/textures/stone-47_diffuse.jpg"},{"uri":"../materials/m1/textures/stone-47_normals.jpg"}],"textures":[{"source":0},{"source":1}]}
