{"asset":{"version":"2.0","generator":"glGen deterministic terrain dressing"},"scene":0,"scenes":[{"nodes":[0]}],"nodes":[{"name":"granite_crag_mid","mesh":0}],"meshes":[{"primitives":[{"attributes":{"POSITION":0,"NORMAL":1,"TEXCOORD_0":2},"indices":3,"material":0}]}],"materials":[{"name":"fractured weathered granite","doubleSided":true,"pbrMetallicRoughness":{"baseColorFactor":[1,1,1,1],"metallicFactor":0,"roughnessFactor":0.9,"baseColorTexture":{"index":0}},"normalTexture":{"index":1,"scale":0.65}}],"buffers":[{"byteLength":13824,"uri":"data:application/octet-stream;base64,"}],"bufferViews":[{"buffer":0,"byteOffset":0,"byteLength":4608,"target":34962},{"buffer":0,"byteOffset":4608,"byteLength":4608,"target":34962},{"buffer":0,"byteOffset":9216,"byteLength":3072,"target":34962},{"buffer":0,"byteOffset":12288,"byteLength":1536,"target":34963}],"accessors":[{"bufferView":0,"componentType":5126,"count":384,"type":"VEC3","min":[-0.7122356292967762,-0.027000000000000135,-0.7906994755357803],"max":[0.8849152348297807,2.0925000000000002,0.7053333697341223]},{"bufferView":1,"componentType":5126,"count":384,"type":"VEC3","min":[-0.9987120691795263,-1.0,-0.9963950916552522],"max":[0.9410927556269231,1.0,0.9910075211563145]},{"bufferView":2,"componentType":5126,"count":384,"type":"VEC2"},{"bufferView":3,"componentType":5125,"count":384,"type":"SCALAR"}],"images":[{"uri":"../materials/m1/textures/stone-47_diffuse.jpg"},{"uri":"../materials/m1/textures/stone-47_normals.jpg"}],"textures":[{"source":0},{"source":1}]}
