{"asset":{"version":"2.0","generator":"glGen deterministic terrain dressing"},"scene":0,"scenes":[{"nodes":[0]}],"nodes":[{"name":"granite_crag","mesh":0}],"meshes":[{"primitives":[{"attributes":{"POSITION":0,"NORMAL":1,"TEXCOORD_0":2},"indices":3,"material":0}]}],"materials":[{"name":"fractured weathered granite","doubleSided":true,"pbrMetallicRoughness":{"baseColorFactor":[1,1,1,1],"metallicFactor":0,"roughnessFactor":0.9,"baseColorTexture":{"index":0}},"normalTexture":{"index":1,"scale":0.65}}],"buffers":[{"byteLength":55296,"uri":"data:application/octet-stream;base64,"}],"bufferViews":[{"buffer":0,"byteOffset":0,"byteLength":18432,"target":34962},{"buffer":0,"byteOffset":18432,"byteLength":18432,"target":34962},{"buffer":0,"byteOffset":36864,"byteLength":12288,"target":34962},{"buffer":0,"byteOffset":49152,"byteLength":6144,"target":34963}],"accessors":[{"bufferView":0,"componentType":5126,"count":1536,"type":"VEC3","min":[-0.7176524336034623,-0.027000000000000135,-0.85216024075356],"max":[0.8859209216819531,2.0925000000000002,0.7548301765202504]},{"bufferView":1,"componentType":5126,"count":1536,"type":"VEC3","min":[-0.9962321039729907,-1.0,-0.9906093234495603],"max":[0.9962147696510391,1.0,0.995965580524624]},{"bufferView":2,"componentType":5126,"count":1536,"type":"VEC2"},{"bufferView":3,"componentType":5125,"count":1536,"type":"SCALAR"}],"images":[{"uri":"../materials/m1/textures/stone-47_diffuse.jpg"},{"uri":"../materials/m1/textures/stone-47_normals.jpg"}],"textures":[{"source":0},{"source":1}]}
