{"asset":{"version":"2.0","generator":"glGen deterministic terrain dressing"},"scene":0,"scenes":[{"nodes":[0]}],"nodes":[{"name":"hazel_bush_mid","mesh":0}],"meshes":[{"primitives":[{"attributes":{"POSITION":0,"NORMAL":1,"TEXCOORD_0":2},"indices":3,"material":0},{"attributes":{"POSITION":4,"NORMAL":5,"TEXCOORD_0":6},"indices":7,"material":1}]}],"materials":[{"name":"hazel woody stems","doubleSided":true,"pbrMetallicRoughness":{"baseColorFactor":[0.14,0.095,0.045,1],"metallicFactor":0,"roughnessFactor":0.9}},{"name":"understory leaf sprays","doubleSided":true,"pbrMetallicRoughness":{"baseColorFactor":[0.84,0.92,0.72,1],"metallicFactor":0,"roughnessFactor":0.64,"baseColorTexture":{"index":0}},"alphaMode":"MASK","alphaCutoff":0.45}],"buffers":[{"byteLength":11880,"uri":"data:application/octet-stream;base64,"}],"bufferViews":[{"buffer":0,"byteOffset":0,"byteLength":2160,"target":34962},{"buffer":0,"byteOffset":2160,"byteLength":2160,"target":34962},{"buffer":0,"byteOffset":4320,"byteLength":1440,"target":34962},{"buffer":0,"byteOffset":5760,"byteLength":720,"target":34963},{"buffer":0,"byteOffset":6480,"byteLength":1800,"target":34962},{"buffer":0,"byteOffset":8280,"byteLength":1800,"target":34962},{"buffer":0,"byteOffset":10080,"byteLength":1200,"target":34962},{"buffer":0,"byteOffset":11280,"byteLength":600,"target":34963}],"accessors":[{"bufferView":0,"componentType":5126,"count":180,"type":"VEC3","min":[-0.6496141812462,-0.044517960661527994,-0.5131438256206745],"max":[0.43632532483581526,1.304189986181562,0.3679873517169055]},{"bufferView":1,"componentType":5126,"count":180,"type":"VEC3","min":[-0.5848135536505624,-0.44681793299995853,-0.8659558695542577],"max":[0.9980606071440248,0.6534048818791256,0.8659558695542575]},{"bufferView":2,"componentType":5126,"count":180,"type":"VEC2"},{"bufferView":3,"componentType":5125,"count":180,"type":"SCALAR"},{"bufferView":4,"componentType":5126,"count":150,"type":"VEC3","min":[-1.2107767538537466,0.0029257885850159787,-0.8770643743112014],"max":[0.9473739193334654,1.2641263224689303,0.7660487318102833]},{"bufferView":5,"componentType":5126,"count":150,"type":"VEC3","min":[-0.4054106710412145,0.8457616934762097,-0.46023720529944345],"max":[0.5311991232257298,0.9997257191056665,0.4050728990653881]},{"bufferView":6,"componentType":5126,"count":150,"type":"VEC2"},{"bufferView":7,"componentType":5125,"count":150,"type":"SCALAR"}],"images":[{"uri":"../trees/birch/birch_spray_v2.png"}],"textures":[{"source":0}]}
