{"asset":{"version":"2.0","generator":"glGen deterministic terrain dressing"},"scene":0,"scenes":[{"nodes":[0]}],"nodes":[{"name":"hazel_bush_far","mesh":0}],"meshes":[{"primitives":[{"attributes":{"POSITION":0,"NORMAL":1,"TEXCOORD_0":2},"indices":3,"material":1}]}],"materials":[{"name":"hazel woody stems","doubleSided":true,"pbrMetallicRoughness":{"baseColorFactor":[0.14,0.095,0.045,1],"metallicFactor":0,"roughnessFactor":0.9}},{"name":"understory leaf sprays","doubleSided":true,"pbrMetallicRoughness":{"baseColorFactor":[0.84,0.92,0.72,1],"metallicFactor":0,"roughnessFactor":0.64,"baseColorTexture":{"index":0}},"alphaMode":"MASK","alphaCutoff":0.45}],"buffers":[{"byteLength":3240,"uri":"data:application/octet-stream;base64,"}],"bufferViews":[{"buffer":0,"byteOffset":0,"byteLength":1080,"target":34962},{"buffer":0,"byteOffset":1080,"byteLength":1080,"target":34962},{"buffer":0,"byteOffset":2160,"byteLength":720,"target":34962},{"buffer":0,"byteOffset":2880,"byteLength":360,"target":34963}],"accessors":[{"bufferView":0,"componentType":5126,"count":90,"type":"VEC3","min":[-1.146728708223679,-0.02830354170757085,-1.1821943167489386],"max":[0.8308963247950689,1.2870789636629065,0.9030241140008957]},{"bufferView":1,"componentType":5126,"count":90,"type":"VEC3","min":[-0.35955569402506454,0.8457616934762097,-0.33566961162197945],"max":[0.5311991232257298,0.9997257191056665,0.4050728990653881]},{"bufferView":2,"componentType":5126,"count":90,"type":"VEC2"},{"bufferView":3,"componentType":5125,"count":90,"type":"SCALAR"}],"images":[{"uri":"../trees/birch/birch_spray_v2.png"}],"textures":[{"source":0}]}
