{"asset":{"version":"2.0","generator":"glGen deterministic terrain dressing"},"scene":0,"scenes":[{"nodes":[0]}],"nodes":[{"name":"hazel_bush","mesh":0}],"meshes":[{"primitives":[{"attributes":{"POSITION":0,"NORMAL":1,"TEXCOORD_0":2},"indices":3,"material":0},{"attributes":{"POSITION":4,"NORMAL":5,"TEXCOORD_0":6},"indices":7,"material":1}]}],"materials":[{"name":"hazel woody stems","doubleSided":true,"pbrMetallicRoughness":{"baseColorFactor":[0.14,0.095,0.045,1],"metallicFactor":0,"roughnessFactor":0.9}},{"name":"understory leaf sprays","doubleSided":true,"pbrMetallicRoughness":{"baseColorFactor":[0.84,0.92,0.72,1],"metallicFactor":0,"roughnessFactor":0.64,"baseColorTexture":{"index":0}},"alphaMode":"MASK","alphaCutoff":0.45}],"buffers":[{"byteLength":39960,"uri":"data:application/octet-stream;base64,"}],"bufferViews":[{"buffer":0,"byteOffset":0,"byteLength":3240,"target":34962},{"buffer":0,"byteOffset":3240,"byteLength":3240,"target":34962},{"buffer":0,"byteOffset":6480,"byteLength":2160,"target":34962},{"buffer":0,"byteOffset":8640,"byteLength":1080,"target":34963},{"buffer":0,"byteOffset":9720,"byteLength":10080,"target":34962},{"buffer":0,"byteOffset":19800,"byteLength":10080,"target":34962},{"buffer":0,"byteOffset":29880,"byteLength":6720,"target":34962},{"buffer":0,"byteOffset":36600,"byteLength":3360,"target":34963}],"accessors":[{"bufferView":0,"componentType":5126,"count":270,"type":"VEC3","min":[-0.6503805325572477,-0.046298106132030524,-0.5134151100526038],"max":[0.43632532483581526,1.304553826120241,0.36829212779594817]},{"bufferView":1,"componentType":5126,"count":270,"type":"VEC3","min":[-0.9883203255621693,-0.6534048818791256,-0.9994091813596381],"max":[0.9980606071440248,0.6534048818791256,0.9994091813596381]},{"bufferView":2,"componentType":5126,"count":270,"type":"VEC2"},{"bufferView":3,"componentType":5125,"count":270,"type":"SCALAR"},{"bufferView":4,"componentType":5126,"count":840,"type":"VEC3","min":[-1.028118154485532,-0.0011688368047299835,-0.9276264354328192],"max":[0.8350144032758602,1.3042543748602415,0.8650067604841833]},{"bufferView":5,"componentType":5126,"count":840,"type":"VEC3","min":[-0.4054106710412145,0.8457616934762097,-0.468286895755892],"max":[0.5311991232257298,0.9998984010773129,0.489283825942334]},{"bufferView":6,"componentType":5126,"count":840,"type":"VEC2"},{"bufferView":7,"componentType":5125,"count":840,"type":"SCALAR"}],"images":[{"uri":"../trees/birch/birch_spray_v2.png"}],"textures":[{"source":0}]}
