{"asset":{"version":"2.0","generator":"glGen deterministic terrain dressing"},"scene":0,"scenes":[{"nodes":[0]}],"nodes":[{"name":"low_scrub_far","mesh":0}],"meshes":[{"primitives":[{"attributes":{"POSITION":0,"NORMAL":1,"TEXCOORD_0":2},"indices":3,"material":1}]}],"materials":[{"name":"hazel woody stems","doubleSided":true,"pbrMetallicRoughness":{"baseColorFactor":[0.14,0.095,0.045,1],"metallicFactor":0,"roughnessFactor":0.9}},{"name":"understory leaf sprays","doubleSided":true,"pbrMetallicRoughness":{"baseColorFactor":[0.72,0.84,0.58,1],"metallicFactor":0,"roughnessFactor":0.64,"baseColorTexture":{"index":0}},"alphaMode":"MASK","alphaCutoff":0.45}],"buffers":[{"byteLength":4536,"uri":"data:application/octet-stream;base64,"}],"bufferViews":[{"buffer":0,"byteOffset":0,"byteLength":1512,"target":34962},{"buffer":0,"byteOffset":1512,"byteLength":1512,"target":34962},{"buffer":0,"byteOffset":3024,"byteLength":1008,"target":34962},{"buffer":0,"byteOffset":4032,"byteLength":504,"target":34963}],"accessors":[{"bufferView":0,"componentType":5126,"count":126,"type":"VEC3","min":[-1.3337600928398514,-0.09276513986269251,-1.272411742108784],"max":[1.343458444511667,0.836210067433102,1.1852440431882296]},{"bufferView":1,"componentType":5126,"count":126,"type":"VEC3","min":[-0.24975472866994972,0.8848545589113348,-0.3512311075680097],"max":[0.42365210091079675,0.9996821866902936,0.395830851791474]},{"bufferView":2,"componentType":5126,"count":126,"type":"VEC2"},{"bufferView":3,"componentType":5125,"count":126,"type":"SCALAR"}],"images":[{"uri":"../trees/birch/birch_spray_v2.png"}],"textures":[{"source":0}]}
