{"asset":{"version":"2.0","generator":"glGen deterministic terrain dressing"},"scene":0,"scenes":[{"nodes":[0]}],"nodes":[{"name":"low_scrub_mid","mesh":0}],"meshes":[{"primitives":[{"attributes":{"POSITION":0,"NORMAL":1,"TEXCOORD_0":2},"indices":3,"material":0},{"attributes":{"POSITION":4,"NORMAL":5,"TEXCOORD_0":6},"indices":7,"material":1}]}],"materials":[{"name":"hazel woody stems","doubleSided":true,"pbrMetallicRoughness":{"baseColorFactor":[0.14,0.095,0.045,1],"metallicFactor":0,"roughnessFactor":0.9}},{"name":"understory leaf sprays","doubleSided":true,"pbrMetallicRoughness":{"baseColorFactor":[0.72,0.84,0.58,1],"metallicFactor":0,"roughnessFactor":0.64,"baseColorTexture":{"index":0}},"alphaMode":"MASK","alphaCutoff":0.45}],"buffers":[{"byteLength":16632,"uri":"data:application/octet-stream;base64,"}],"bufferViews":[{"buffer":0,"byteOffset":0,"byteLength":3024,"target":34962},{"buffer":0,"byteOffset":3024,"byteLength":3024,"target":34962},{"buffer":0,"byteOffset":6048,"byteLength":2016,"target":34962},{"buffer":0,"byteOffset":8064,"byteLength":1008,"target":34963},{"buffer":0,"byteOffset":9072,"byteLength":2520,"target":34962},{"buffer":0,"byteOffset":11592,"byteLength":2520,"target":34962},{"buffer":0,"byteOffset":14112,"byteLength":1680,"target":34962},{"buffer":0,"byteOffset":15792,"byteLength":840,"target":34963}],"accessors":[{"bufferView":0,"componentType":5126,"count":252,"type":"VEC3","min":[-0.8171967221139969,-0.052414101606540336,-0.8101965645658742],"max":[0.8365240759555479,0.6556258263515387,0.7912151245989378]},{"bufferView":1,"componentType":5126,"count":252,"type":"VEC3","min":[-0.7101165978790577,-0.874220196123277,-0.829135053081099],"max":[0.9949972554233285,0.920774346022077,0.8291350530810988]},{"bufferView":2,"componentType":5126,"count":252,"type":"VEC2"},{"bufferView":3,"componentType":5125,"count":252,"type":"SCALAR"},{"bufferView":4,"componentType":5126,"count":210,"type":"VEC3","min":[-1.13578636404892,-0.06393372146714871,-1.1715033943056237],"max":[1.4097849519755483,0.7549585633294442,1.0506998446858582]},{"bufferView":5,"componentType":5126,"count":210,"type":"VEC3","min":[-0.3069073863218918,0.8450155393495266,-0.3512311075680097],"max":[0.42860366195401767,0.999964553157991,0.5302490445580142]},{"bufferView":6,"componentType":5126,"count":210,"type":"VEC2"},{"bufferView":7,"componentType":5125,"count":210,"type":"SCALAR"}],"images":[{"uri":"../trees/birch/birch_spray_v2.png"}],"textures":[{"source":0}]}
