{"asset":{"version":"2.0","generator":"glGen deterministic terrain dressing"},"scene":0,"scenes":[{"nodes":[0]}],"nodes":[{"name":"low_scrub","mesh":0}],"meshes":[{"primitives":[{"attributes":{"POSITION":0,"NORMAL":1,"TEXCOORD_0":2},"indices":3,"material":0},{"attributes":{"POSITION":4,"NORMAL":5,"TEXCOORD_0":6},"indices":7,"material":1}]}],"materials":[{"name":"hazel woody stems","doubleSided":true,"pbrMetallicRoughness":{"baseColorFactor":[0.14,0.095,0.045,1],"metallicFactor":0,"roughnessFactor":0.9}},{"name":"understory leaf sprays","doubleSided":true,"pbrMetallicRoughness":{"baseColorFactor":[0.72,0.84,0.58,1],"metallicFactor":0,"roughnessFactor":0.64,"baseColorTexture":{"index":0}},"alphaMode":"MASK","alphaCutoff":0.45}],"buffers":[{"byteLength":55944,"uri":"data:application/octet-stream;base64,"}],"bufferViews":[{"buffer":0,"byteOffset":0,"byteLength":4536,"target":34962},{"buffer":0,"byteOffset":4536,"byteLength":4536,"target":34962},{"buffer":0,"byteOffset":9072,"byteLength":3024,"target":34962},{"buffer":0,"byteOffset":12096,"byteLength":1512,"target":34963},{"buffer":0,"byteOffset":13608,"byteLength":14112,"target":34962},{"buffer":0,"byteOffset":27720,"byteLength":14112,"target":34962},{"buffer":0,"byteOffset":41832,"byteLength":9408,"target":34962},{"buffer":0,"byteOffset":51240,"byteLength":4704,"target":34963}],"accessors":[{"bufferView":0,"componentType":5126,"count":378,"type":"VEC3","min":[-0.817002361748329,-0.0530837308577231,-0.8103959259204065],"max":[0.8365240759555479,0.6556530808726749,0.7913846314628588]},{"bufferView":1,"componentType":5126,"count":378,"type":"VEC3","min":[-0.9818605582424178,-0.920774346022077,-0.9396650843710971],"max":[0.9949972554233285,0.920774346022077,0.9396650843710971]},{"bufferView":2,"componentType":5126,"count":378,"type":"VEC2"},{"bufferView":3,"componentType":5125,"count":378,"type":"SCALAR"},{"bufferView":4,"componentType":5126,"count":1176,"type":"VEC3","min":[-1.0990250379727708,-0.09126230485285307,-1.1698278086683096],"max":[1.1862483157092145,0.772396406384437,1.2500754387414796]},{"bufferView":5,"componentType":5126,"count":1176,"type":"VEC3","min":[-0.47823864096405727,0.8435848892083573,-0.5368411890247219],"max":[0.4489090260521786,0.9999672239521586,0.5302490445580142]},{"bufferView":6,"componentType":5126,"count":1176,"type":"VEC2"},{"bufferView":7,"componentType":5125,"count":1176,"type":"SCALAR"}],"images":[{"uri":"../trees/birch/birch_spray_v2.png"}],"textures":[{"source":0}]}
