{"asset":{"version":"2.0","generator":"glGen deterministic terrain dressing"},"scene":0,"scenes":[{"nodes":[0]}],"nodes":[{"name":"pebble_bed_far","mesh":0}],"meshes":[{"primitives":[{"attributes":{"POSITION":0,"NORMAL":1,"TEXCOORD_0":2},"indices":3,"material":0}]}],"materials":[{"name":"fractured weathered granite","doubleSided":true,"pbrMetallicRoughness":{"baseColorFactor":[1,1,1,1],"metallicFactor":0,"roughnessFactor":0.9,"baseColorTexture":{"index":0}},"normalTexture":{"index":1,"scale":0.65}}],"buffers":[{"byteLength":864,"uri":"data:application/octet-stream;base64,"}],"bufferViews":[{"buffer":0,"byteOffset":0,"byteLength":288,"target":34962},{"buffer":0,"byteOffset":288,"byteLength":288,"target":34962},{"buffer":0,"byteOffset":576,"byteLength":192,"target":34962},{"buffer":0,"byteOffset":768,"byteLength":96,"target":34963}],"accessors":[{"bufferView":0,"componentType":5126,"count":24,"type":"VEC3","min":[0.013011841548084657,-0.0011446607389843863,-0.05643312068391565],"max":[0.18168228671646547,0.08871120727129028,0.09697700296163418]},{"bufferView":1,"componentType":5126,"count":24,"type":"VEC3","min":[-0.3937100118207676,-0.7890747566766309,-0.4715436935935067],"max":[0.47511136257335035,0.8145956635862649,0.4891648009103629]},{"bufferView":2,"componentType":5126,"count":24,"type":"VEC2"},{"bufferView":3,"componentType":5125,"count":24,"type":"SCALAR"}],"images":[{"uri":"../materials/m1/textures/stone-47_diffuse.jpg"},{"uri":"../materials/m1/textures/stone-47_normals.jpg"}],"textures":[{"source":0},{"source":1}]}
