{"asset":{"version":"2.0","generator":"glGen deterministic terrain dressing"},"scene":0,"scenes":[{"nodes":[0]}],"nodes":[{"name":"pebble_bed","mesh":0}],"meshes":[{"primitives":[{"attributes":{"POSITION":0,"NORMAL":1,"TEXCOORD_0":2},"indices":3,"material":0}]}],"materials":[{"name":"fractured weathered granite","doubleSided":true,"pbrMetallicRoughness":{"baseColorFactor":[1,1,1,1],"metallicFactor":0,"roughnessFactor":0.9,"baseColorTexture":{"index":0}},"normalTexture":{"index":1,"scale":0.65}}],"buffers":[{"byteLength":24192,"uri":"data:application/octet-stream;base64,"}],"bufferViews":[{"buffer":0,"byteOffset":0,"byteLength":8064,"target":34962},{"buffer":0,"byteOffset":8064,"byteLength":8064,"target":34962},{"buffer":0,"byteOffset":16128,"byteLength":5376,"target":34962},{"buffer":0,"byteOffset":21504,"byteLength":2688,"target":34963}],"accessors":[{"bufferView":0,"componentType":5126,"count":672,"type":"VEC3","min":[-0.5597237885843482,-0.001854657422581743,-0.3379211033913446],"max":[0.565646981745516,0.14373595025008623,0.5340271723381225]},{"bufferView":1,"componentType":5126,"count":672,"type":"VEC3","min":[-0.9783271502635594,-0.9997468096718639,-0.99266676779194],"max":[0.9995969724009037,0.9998379203744738,0.9972055800139975]},{"bufferView":2,"componentType":5126,"count":672,"type":"VEC2"},{"bufferView":3,"componentType":5125,"count":672,"type":"SCALAR"}],"images":[{"uri":"../materials/m1/textures/stone-47_diffuse.jpg"},{"uri":"../materials/m1/textures/stone-47_normals.jpg"}],"textures":[{"source":0},{"source":1}]}
